<svg width="844" height="1000" viewBox="0 0 844 1000" fill="none" xmlns="http://www.w3.org/2000/svg">
<rect width="844" height="484" fill="#393E46"/>
<path d="M338.85 277.45H328.25V206.45H338.85V277.45Z" fill="white"/>
<path d="M353.85 206.45H363.75L390.85 260.35L389.55 261.65V206.45H399.65V277.35H389.65L362.65 224.75L363.95 223.45V277.35H353.85V206.45Z" fill="white"/>
<path d="M442.75 206.45H450.45L462.45 259.95L471.65 206.45H482.35L468.25 277.45H457.55L446.85 228.65L435.65 277.45H424.95L410.85 206.45H421.55L430.75 259.95L442.75 206.45Z" fill="white"/>
<path d="M500.15 275.45C496.85 273.65 494.25 270.95 492.45 267.55C490.65 264.15 489.75 260.05 489.75 255.45V228.45C489.75 223.75 490.65 219.75 492.45 216.35C494.25 212.95 496.85 210.35 500.15 208.45C503.45 206.65 507.45 205.65 511.95 205.65C516.45 205.65 520.45 206.55 523.75 208.45C527.05 210.25 529.65 212.95 531.45 216.35C533.25 219.75 534.15 223.85 534.15 228.45V255.45C534.15 260.05 533.25 264.15 531.45 267.55C529.65 270.95 527.05 273.65 523.75 275.45C520.45 277.25 516.45 278.25 511.95 278.25C507.45 278.15 503.45 277.25 500.15 275.45ZM518.05 266.25C519.75 265.25 521.15 263.85 522.05 262.05C523.05 260.25 523.45 258.05 523.45 255.55V228.25C523.45 225.85 522.95 223.65 522.05 221.85C521.05 220.05 519.75 218.55 518.05 217.65C516.35 216.65 514.25 216.15 511.95 216.15C509.65 216.15 507.55 216.65 505.85 217.65C504.15 218.65 502.75 220.05 501.85 221.85C500.95 223.65 500.45 225.85 500.45 228.25V255.55C500.45 258.05 500.95 260.15 501.85 262.05C502.75 263.85 504.15 265.35 505.85 266.25C507.55 267.25 509.65 267.75 511.95 267.75C514.25 267.75 516.35 267.25 518.05 266.25Z" fill="white"/>
<path d="M556.25 275.45C552.95 273.65 550.35 270.95 548.55 267.55C546.75 264.15 545.85 260.05 545.85 255.45V228.45C545.85 223.75 546.75 219.75 548.55 216.35C550.35 212.95 552.95 210.35 556.25 208.45C559.55 206.65 563.55 205.65 568.05 205.65C572.55 205.65 576.55 206.55 579.85 208.45C583.15 210.25 585.75 212.95 587.55 216.35C589.35 219.75 590.25 223.85 590.25 228.45V255.45C590.25 260.05 589.35 264.15 587.55 267.55C585.75 270.95 583.15 273.65 579.85 275.45C576.55 277.25 572.55 278.25 568.05 278.25C563.45 278.15 559.55 277.25 556.25 275.45ZM574.15 266.25C575.85 265.25 577.25 263.85 578.15 262.05C579.15 260.25 579.55 258.05 579.55 255.55V228.25C579.55 225.85 579.05 223.65 578.15 221.85C577.15 220.05 575.85 218.55 574.15 217.65C572.45 216.65 570.35 216.15 568.05 216.15C565.75 216.15 563.65 216.65 561.95 217.65C560.25 218.65 558.85 220.05 557.95 221.85C557.05 223.65 556.55 225.85 556.55 228.25V255.55C556.55 258.05 557.05 260.15 557.95 262.05C558.85 263.85 560.25 265.35 561.95 266.25C563.65 267.25 565.75 267.75 568.05 267.75C570.35 267.75 572.35 267.25 574.15 266.25Z" fill="white"/>
<path d="M603.75 206.45H614.25V277.45H603.75V206.45ZM610.35 267.45H624.95C628.65 267.45 631.45 266.45 633.55 264.55C635.55 262.65 636.65 259.85 636.65 256.35V227.55C636.65 224.05 635.65 221.25 633.55 219.35C631.55 217.45 628.65 216.45 624.95 216.45H610.35V206.45H624.75C629.45 206.45 633.55 207.25 636.85 208.95C640.25 210.65 642.75 213.05 644.55 216.25C646.25 219.45 647.15 223.25 647.15 227.75V256.15C647.15 260.55 646.25 264.35 644.55 267.55C642.75 270.75 640.25 273.15 636.85 274.85C633.45 276.55 629.45 277.35 624.65 277.35H610.25V267.45H610.35Z" fill="white"/>
<path d="M203.65 180.45H300.75C304.45 180.45 307.55 183.45 307.55 187.25V296.75C307.55 300.45 304.55 303.55 300.75 303.55H203.65C199.85 303.45 196.85 300.45 196.85 296.65V187.25C196.85 183.45 199.85 180.45 203.65 180.45Z" fill="white"/>
<path fill-rule="evenodd" clip-rule="evenodd" d="M237.05 234.45C238.35 234.55 239.35 235.65 239.35 237.05C239.35 238.45 238.15 239.65 236.75 239.65H219.35L220.45 243.65C221.75 248.45 218.95 249.95 215.25 251.75C212.15 253.35 208.05 255.35 208.05 262.75C208.05 273.15 216.75 287.35 219.35 291.35H234.75V251.25C234.75 250.95 234.75 250.75 234.85 250.45C234.85 250.35 234.85 250.15 234.85 249.95C234.85 248.55 236.05 247.35 237.45 247.35H245.35V191.25C245.35 189.85 246.55 188.65 247.95 188.65C249.35 188.65 250.55 189.85 250.55 191.25V235.75H298.15C299.55 235.75 300.75 236.95 300.75 238.35V250.15V294.05C300.75 295.45 299.55 296.65 298.15 296.65C296.75 296.65 295.55 295.45 295.55 294.05V259.65H250.55V293.95C250.55 295.35 249.35 296.55 247.95 296.55C246.55 296.55 245.35 295.35 245.35 293.95V252.65H239.95V293.95C239.95 295.35 238.75 296.55 237.35 296.55C237.25 296.55 237.15 296.55 237.05 296.55C236.95 296.55 236.85 296.55 236.75 296.55H217.05C215.65 296.55 214.45 295.35 214.45 293.95C214.45 293.75 214.45 293.55 214.55 293.45C211.25 288.15 202.85 273.85 202.85 262.75C202.85 252.25 208.55 249.35 212.85 247.15C214.45 246.35 215.65 245.75 215.45 244.95L213.55 237.85C213.45 237.55 213.45 237.35 213.45 237.05C213.45 235.65 214.65 234.45 216.05 234.45H220.55C219.35 232.45 218.05 230.25 216.95 228.05C214.95 224.35 213.05 220.55 211.65 217.15C209.45 212.05 208.05 207.65 207.55 204.25C207.15 201.95 207.05 199.95 207.35 198.45C207.75 196.35 208.75 194.85 210.35 194.15C210.65 194.05 211.05 193.95 211.35 193.85C213.85 193.45 216.95 195.35 220.15 199.45C221.15 200.65 222.05 202.15 223.05 203.75C223.35 200.15 223.85 197.15 224.65 194.75C226.05 190.05 228.45 187.45 231.45 187.45C234.35 187.45 236.75 190.05 238.25 194.75C239.35 198.25 240.05 203.25 240.05 209.45C240.05 214.15 239.65 219.65 238.95 224.65C238.45 228.25 237.75 231.75 237.05 234.45ZM217.75 254.55C216.45 255.75 215.35 257.15 214.45 258.95C213.75 260.45 213.35 262.25 213.35 264.25C213.35 273.75 222.25 286.65 222.25 286.75C222.75 287.55 223.85 287.75 224.65 287.25C225.45 286.75 225.65 285.65 225.15 284.85C225.15 284.85 216.85 272.75 216.85 264.35C216.85 262.85 217.15 261.65 217.65 260.55C218.25 259.25 219.15 258.15 220.15 257.25C220.85 256.65 220.85 255.55 220.25 254.85C219.65 254.15 218.45 253.95 217.75 254.55ZM250.55 256.25H295.55V252.65H250.55V256.25ZM250.55 247.45H295.55V240.85H250.55V247.45ZM225.25 232.35C224.75 230.05 224.25 227.35 223.85 224.55C223.45 221.45 223.15 218.15 222.95 215.05C220.65 209.65 218.25 205.45 216.05 202.65C214.25 200.35 212.95 199.15 212.15 199.05C212.15 199.05 212.25 199.15 212.25 199.45C212.05 200.35 212.15 201.75 212.45 203.45C212.95 206.45 214.25 210.45 216.25 215.15C217.65 218.45 219.45 222.05 221.35 225.65C222.65 227.95 223.95 230.25 225.25 232.35ZM231.15 234.45H231.55C232.45 231.85 233.15 228.15 233.75 223.95C234.35 219.15 234.75 213.95 234.75 209.35C234.75 203.75 234.15 199.25 233.25 196.15C232.55 193.85 231.85 192.55 231.35 192.55C230.85 192.55 230.15 193.85 229.45 196.15C228.55 199.25 227.95 203.65 227.95 209.35C227.95 213.85 228.35 219.05 228.95 223.75C229.55 228.05 230.35 231.85 231.15 234.45Z" fill="#053031"/>
<rect width="844" height="484" transform="translate(0 516)" fill="#EEEEEE"/>
<path d="M338.85 793.45H328.25V722.45H338.85V793.45Z" fill="#07484A"/>
<path d="M353.85 722.45H363.75L390.85 776.35L389.55 777.65V722.45H399.65V793.35H389.65L362.65 740.75L363.95 739.45V793.35H353.85V722.45Z" fill="#07484A"/>
<path d="M442.75 722.45H450.45L462.45 775.95L471.65 722.45H482.35L468.25 793.45H457.55L446.85 744.65L435.65 793.45H424.95L410.85 722.45H421.55L430.75 775.95L442.75 722.45Z" fill="#07484A"/>
<path d="M500.15 791.45C496.85 789.65 494.25 786.95 492.45 783.55C490.65 780.15 489.75 776.05 489.75 771.45V744.45C489.75 739.75 490.65 735.75 492.45 732.35C494.25 728.95 496.85 726.35 500.15 724.45C503.45 722.65 507.45 721.65 511.95 721.65C516.45 721.65 520.45 722.55 523.75 724.45C527.05 726.25 529.65 728.95 531.45 732.35C533.25 735.75 534.15 739.85 534.15 744.45V771.45C534.15 776.05 533.25 780.15 531.45 783.55C529.65 786.95 527.05 789.65 523.75 791.45C520.45 793.25 516.45 794.25 511.95 794.25C507.45 794.15 503.45 793.25 500.15 791.45ZM518.05 782.25C519.75 781.25 521.15 779.85 522.05 778.05C523.05 776.25 523.45 774.05 523.45 771.55V744.25C523.45 741.85 522.95 739.65 522.05 737.85C521.05 736.05 519.75 734.55 518.05 733.65C516.35 732.65 514.25 732.15 511.95 732.15C509.65 732.15 507.55 732.65 505.85 733.65C504.15 734.65 502.75 736.05 501.85 737.85C500.95 739.65 500.45 741.85 500.45 744.25V771.55C500.45 774.05 500.95 776.15 501.85 778.05C502.75 779.85 504.15 781.35 505.85 782.25C507.55 783.25 509.65 783.75 511.95 783.75C514.25 783.75 516.35 783.25 518.05 782.25Z" fill="#07484A"/>
<path d="M556.25 791.45C552.95 789.65 550.35 786.95 548.55 783.55C546.75 780.15 545.85 776.05 545.85 771.45V744.45C545.85 739.75 546.75 735.75 548.55 732.35C550.35 728.95 552.95 726.35 556.25 724.45C559.55 722.65 563.55 721.65 568.05 721.65C572.55 721.65 576.55 722.55 579.85 724.45C583.15 726.25 585.75 728.95 587.55 732.35C589.35 735.75 590.25 739.85 590.25 744.45V771.45C590.25 776.05 589.35 780.15 587.55 783.55C585.75 786.95 583.15 789.65 579.85 791.45C576.55 793.25 572.55 794.25 568.05 794.25C563.45 794.15 559.55 793.25 556.25 791.45ZM574.15 782.25C575.85 781.25 577.25 779.85 578.15 778.05C579.15 776.25 579.55 774.05 579.55 771.55V744.25C579.55 741.85 579.05 739.65 578.15 737.85C577.15 736.05 575.85 734.55 574.15 733.65C572.45 732.65 570.35 732.15 568.05 732.15C565.75 732.15 563.65 732.65 561.95 733.65C560.25 734.65 558.85 736.05 557.95 737.85C557.05 739.65 556.55 741.85 556.55 744.25V771.55C556.55 774.05 557.05 776.15 557.95 778.05C558.85 779.85 560.25 781.35 561.95 782.25C563.65 783.25 565.75 783.75 568.05 783.75C570.35 783.75 572.35 783.25 574.15 782.25Z" fill="#07484A"/>
<path d="M603.75 722.45H614.25V793.45H603.75V722.45ZM610.35 783.45H624.95C628.65 783.45 631.45 782.45 633.55 780.55C635.55 778.65 636.65 775.85 636.65 772.35V743.55C636.65 740.05 635.65 737.25 633.55 735.35C631.55 733.45 628.65 732.45 624.95 732.45H610.35V722.45H624.75C629.45 722.45 633.55 723.25 636.85 724.95C640.25 726.65 642.75 729.05 644.55 732.25C646.25 735.45 647.15 739.25 647.15 743.75V772.15C647.15 776.55 646.25 780.35 644.55 783.55C642.75 786.75 640.25 789.15 636.85 790.85C633.45 792.55 629.45 793.35 624.65 793.35H610.25V783.45H610.35Z" fill="#07484A"/>
<path d="M203.65 696.45H300.75C304.45 696.45 307.55 699.45 307.55 703.25V812.75C307.55 816.45 304.55 819.55 300.75 819.55H203.65C199.85 819.45 196.85 816.45 196.85 812.65V703.25C196.85 699.45 199.85 696.45 203.65 696.45Z" fill="#042425"/>
<path d="M203.65 696.45H300.75C304.45 696.45 307.55 699.45 307.55 703.25V812.75C307.55 816.45 304.55 819.55 300.75 819.55H203.65C199.85 819.45 196.85 816.45 196.85 812.65V703.25C196.85 699.45 199.85 696.45 203.65 696.45Z" fill="black" fill-opacity="0.2"/>
<path fill-rule="evenodd" clip-rule="evenodd" d="M237.05 750.45C238.35 750.55 239.35 751.65 239.35 753.05C239.35 754.45 238.15 755.65 236.75 755.65H219.35L220.45 759.65C221.75 764.45 218.95 765.95 215.25 767.75C212.15 769.35 208.05 771.35 208.05 778.75C208.05 789.15 216.75 803.35 219.35 807.35H234.75V767.25C234.75 766.95 234.75 766.75 234.85 766.45C234.85 766.35 234.85 766.15 234.85 765.95C234.85 764.55 236.05 763.35 237.45 763.35H245.35V707.25C245.35 705.85 246.55 704.65 247.95 704.65C249.35 704.65 250.55 705.85 250.55 707.25V751.75H298.15C299.55 751.75 300.75 752.95 300.75 754.35V766.15V810.05C300.75 811.45 299.55 812.65 298.15 812.65C296.75 812.65 295.55 811.45 295.55 810.05V775.65H250.55V809.95C250.55 811.35 249.35 812.55 247.95 812.55C246.55 812.55 245.35 811.35 245.35 809.95V768.65H239.95V809.95C239.95 811.35 238.75 812.55 237.35 812.55C237.25 812.55 237.15 812.55 237.05 812.55C236.95 812.55 236.85 812.55 236.75 812.55H217.05C215.65 812.55 214.45 811.35 214.45 809.95C214.45 809.75 214.45 809.55 214.55 809.45C211.25 804.15 202.85 789.85 202.85 778.75C202.85 768.25 208.55 765.35 212.85 763.15C214.45 762.35 215.65 761.75 215.45 760.95L213.55 753.85C213.45 753.55 213.45 753.35 213.45 753.05C213.45 751.65 214.65 750.45 216.05 750.45H220.55C219.35 748.45 218.05 746.25 216.95 744.05C214.95 740.35 213.05 736.55 211.65 733.15C209.45 728.05 208.05 723.65 207.55 720.25C207.15 717.95 207.05 715.95 207.35 714.45C207.75 712.35 208.75 710.85 210.35 710.15C210.65 710.05 211.05 709.95 211.35 709.85C213.85 709.45 216.95 711.35 220.15 715.45C221.15 716.65 222.05 718.15 223.05 719.75C223.35 716.15 223.85 713.15 224.65 710.75C226.05 706.05 228.45 703.45 231.45 703.45C234.35 703.45 236.75 706.05 238.25 710.75C239.35 714.25 240.05 719.25 240.05 725.45C240.05 730.15 239.65 735.65 238.95 740.65C238.45 744.25 237.75 747.75 237.05 750.45ZM217.75 770.55C216.45 771.75 215.35 773.15 214.45 774.95C213.75 776.45 213.35 778.25 213.35 780.25C213.35 789.75 222.25 802.65 222.25 802.75C222.75 803.55 223.85 803.75 224.65 803.25C225.45 802.75 225.65 801.65 225.15 800.85C225.15 800.85 216.85 788.75 216.85 780.35C216.85 778.85 217.15 777.65 217.65 776.55C218.25 775.25 219.15 774.15 220.15 773.25C220.85 772.65 220.85 771.55 220.25 770.85C219.65 770.15 218.45 769.95 217.75 770.55ZM250.55 772.25H295.55V768.65H250.55V772.25ZM250.55 763.45H295.55V756.85H250.55V763.45ZM225.25 748.35C224.75 746.05 224.25 743.35 223.85 740.55C223.45 737.45 223.15 734.15 222.95 731.05C220.65 725.65 218.25 721.45 216.05 718.65C214.25 716.35 212.95 715.15 212.15 715.05C212.15 715.05 212.25 715.15 212.25 715.45C212.05 716.35 212.15 717.75 212.45 719.45C212.95 722.45 214.25 726.45 216.25 731.15C217.65 734.45 219.45 738.05 221.35 741.65C222.65 743.95 223.95 746.25 225.25 748.35ZM231.15 750.45H231.55C232.45 747.85 233.15 744.15 233.75 739.95C234.35 735.15 234.75 729.95 234.75 725.35C234.75 719.75 234.15 715.25 233.25 712.15C232.55 709.85 231.85 708.55 231.35 708.55C230.85 708.55 230.15 709.85 229.45 712.15C228.55 715.25 227.95 719.65 227.95 725.35C227.95 729.85 228.35 735.05 228.95 739.75C229.55 744.05 230.35 747.85 231.15 750.45Z" fill="white"/>
</svg>
