<svg width="39.12" height="39.12" viewBox="0 0 40 40" fill="none" xmlns="http://www.w3.org/2000/svg">
<path d="M38.3591 13.777L26.6302 11.992L21.3871 0.861136C21.2439 0.55638 21.0083 0.309672 20.7173 0.159713C19.9874 -0.217604 19.1005 0.0968269 18.7356 0.861136L13.4925 11.992L1.76364 13.777C1.44028 13.8254 1.14463 13.985 0.918277 14.2269C0.644628 14.5214 0.493834 14.9176 0.499031 15.3285C0.504229 15.7394 0.664991 16.1314 0.945994 16.4182L9.43196 25.082L7.42711 37.3158C7.38009 37.6003 7.41017 37.893 7.51392 38.1606C7.61767 38.4282 7.79094 38.66 8.0141 38.8297C8.23725 38.9995 8.50135 39.1003 8.77645 39.1209C9.05155 39.1414 9.32665 39.0808 9.57054 38.946L20.0614 33.1701L30.5522 38.946C30.8386 39.1056 31.1712 39.1588 31.4899 39.1008C32.2937 38.9556 32.8342 38.1575 32.6956 37.3158L30.6907 25.082L39.1767 16.4182C39.4077 16.1812 39.5601 15.8716 39.6063 15.533C39.731 14.6864 39.1675 13.9028 38.3591 13.777Z" fill="#FFC107"/>
</svg>
